<?xml version="1.0" encoding="UTF-8" standalone="no"?>
<svg
   width="427.89349"
   zoomAndPan="magnify"
   viewBox="0 0 320.92012 91.660152"
   height="122.21354"
   preserveAspectRatio="xMidYMid"
   version="1.0"
   id="svg48"
   sodipodi:docname="logos.svg"
   inkscape:version="1.3.2 (091e20ef0f, 2023-11-25)"
   xmlns:inkscape="http://www.inkscape.org/namespaces/inkscape"
   xmlns:sodipodi="http://sodipodi.sourceforge.net/DTD/sodipodi-0.dtd"
   xmlns="http://www.w3.org/2000/svg"
   xmlns:svg="http://www.w3.org/2000/svg">
  <sodipodi:namedview
     id="namedview48"
     pagecolor="#ffffff"
     bordercolor="#000000"
     borderopacity="0.25"
     inkscape:showpageshadow="2"
     inkscape:pageopacity="0.0"
     inkscape:pagecheckerboard="0"
     inkscape:deskcolor="#d1d1d1"
     inkscape:zoom="1.5401489"
     inkscape:cx="202.57781"
     inkscape:cy="19.80328"
     inkscape:window-width="1503"
     inkscape:window-height="933"
     inkscape:window-x="0"
     inkscape:window-y="0"
     inkscape:window-maximized="1"
     inkscape:current-layer="svg48" />
  <defs
     id="defs2">
    <filter
       x="0"
       y="0"
       width="1"
       height="1"
       id="c3b272743d">
      <feColorMatrix
         values="0 0 0 0 1 0 0 0 0 1 0 0 0 0 1 0 0 0 1 0"
         color-interpolation-filters="sRGB"
         id="feColorMatrix1" />
    </filter>
    <g
       id="g1" />
    <mask
       id="7c9a1de5e6">
      <g
         filter="url(#c3b272743d)"
         id="g2">
        <rect
           x="-37.5"
           width="450"
           fill="#000000"
           y="-37.5"
           height="450"
           fill-opacity="0.8"
           id="rect1" />
      </g>
    </mask>
    <clipPath
       id="630c9c43f3">
      <rect
         x="0"
         width="220"
         y="0"
         height="146"
         id="rect2" />
    </clipPath>
  </defs>
  <g
     mask="url(#7c9a1de5e6)"
     id="g15"
     transform="translate(-27.551294,-134.81118)">
    <g
       transform="translate(86,114)"
       id="g14">
      <g
         clip-path="url(#630c9c43f3)"
         id="g13">
        <g
           fill="#e1d4d7"
           fill-opacity="1"
           id="g6">
          <g
             transform="translate(0.616503,105.80727)"
             id="g5">
            <g
               id="g4">
              <path
                 d="m 30.214844,4.898438 c 9.953125,0 20.285156,-3.558594 29.4375,-8.457032 11.933594,-6.34375 24.539062,-13.757812 37.414062,-13.757812 3.691404,0 7.382814,0.589844 11.105474,2.007812 0.23828,0.08203 0.375,0.132813 0.45312,0.132813 0.0547,0 0.082,-0.02344 0.082,-0.05078 0,-0.214844 -1.60547,-1.3125 -2.14062,-1.445313 -3.61328,-0.992187 -7.093754,-1.417969 -10.464848,-1.417969 -20.765624,0 -37.679687,16.484375 -58.289062,20.097656 -2.40625,0.425782 -4.921875,0.667969 -7.4375,0.667969 -10.652344,0 -21.089844,-4.28125 -22.210938,-16.59375 -0.082031,-0.960937 -0.136718,-1.898437 -0.136718,-2.863281 0,-10.007812 4.765625,-19.238281 11.132812,-26.761719 10.625,-12.578125 25.265625,-22.453125 40.945313,-28.660156 11.160156,5.78125 22.375,12.042969 33.882812,13.96875 1.523438,0.242187 3.289063,0.402344 5.164063,0.402344 7.628906,0 16.914066,-2.328125 16.914066,-8.777344 0,-0.910156 -0.1875,-1.902344 -0.58985,-2.972656 C 111.97266,-79 98.589844,-81.542969 90.105469,-81.648438 c -10.785157,0 -21.195313,2.003907 -32.433594,6.179688 -9.207031,-5.085938 -18.546875,-9.527344 -27.886719,-9.527344 -9.660156,0 -19.667968,3.882813 -22.933594,13.460938 -0.214843,0.644531 -0.296874,0.964844 -0.296874,1.070312 0,0.05469 0,0.08203 0.027343,0.08203 0.136719,0 0.644531,-0.964844 0.644531,-0.964844 2.703126,-7.089844 10.140626,-11.933594 20.097657,-11.933594 8.644531,0 18.0625,3.691406 28.097656,8.667969 C 41.695312,-69.207031 28.796875,-61.125 19.082031,-52 9.257812,-42.765625 1.632812,-29.730469 1.632812,-18.332031 c 0,8.671875 4.386719,16.40625 15.519532,20.847656 4.175781,1.660156 8.59375,2.382813 13.0625,2.382813 z m 66.046875,-64.765626 c -3.988281,0 -7.789063,-0.960937 -12.070313,-2.300781 -7.171875,-2.222656 -14.558594,-6.53125 -22.078125,-10.8125 9.285157,-3.476562 20.257813,-6.207031 30.242188,-6.207031 2.21875,0 4.441406,0.105469 6.636719,0.402344 4.921872,0.667968 12.765622,2.273437 13.648442,8.269531 0.0547,0.292969 0.0547,0.585937 0.0547,0.882813 0,4.546874 -5.32812,7.546874 -9.17968,8.695312 -2.57032,0.75 -4.925786,1.070312 -7.253911,1.070312 z m 0,0"
                 id="path4" />
            </g>
          </g>
        </g>
        <g
           fill="#e1d4d7"
           fill-opacity="1"
           id="g9">
          <g
             transform="translate(110.51871,105.80727)"
             id="g8">
            <g
               id="g7" />
          </g>
        </g>
        <g
           fill="#e1d4d7"
           fill-opacity="1"
           id="g12">
          <g
             transform="translate(132.40597,105.80727)"
             id="g11">
            <g
               id="g10">
              <path
                 d="m 12.660156,6.664062 c 24.566406,0 69.792969,-36.371093 72.789063,-65.113281 0.109375,-0.988281 0.160156,-1.953125 0.160156,-2.914062 0,-0.964844 -0.05078,-1.929688 -0.160156,-2.863281 -1.175781,-10.625 -9.820313,-17.53125 -22.425781,-18.867188 -1.445313,-0.160156 -2.96875,-0.242188 -4.523438,-0.242188 -9.660156,0 -21.113281,2.996094 -33.101562,9.660157 -10.089844,5.59375 -21.570313,15.84375 -22.855469,28.152343 -0.082031,0.75 -0.132813,1.527344 -0.132813,2.304688 0,1.175781 0.105469,2.355469 0.292969,3.558594 0.453125,2.808594 1.578125,5.269531 3.15625,7.332031 -4.734375,6.394531 -8,13.300781 -8.695313,19.9375 -0.082031,0.855469 -0.132812,1.6875 -0.132812,2.542969 0,2.917968 0.558594,5.753906 1.738281,8.457031 2.21875,4.921875 6.289063,7.410156 11.535157,7.945313 0.746093,0.082031 1.550781,0.109374 2.355468,0.109374 z M 10.757812,4.523438 c -0.589843,0 -1.148437,-0.027344 -1.710937,-0.082032 C 5.273438,4.042969 2.382812,2.300781 0.804688,-1.175781 c -0.910157,-1.980469 -1.3125,-4.148438 -1.3125,-6.371094 0,-0.695313 0.027343,-1.390625 0.105468,-2.085937 0.644532,-6.238282 4.148438,-13.113282 9.234375,-19.644532 3.265625,2.703125 7.519531,4.363282 11.855469,4.816406 0.777344,0.08203 1.578125,0.109376 2.382812,0.109376 1.925782,0 3.878907,-0.242188 5.753907,-0.722657 0.105469,-0.05469 0.160156,-0.08203 0.160156,-0.160156 v -0.02734 c 0,-0.535156 -2.25,-1.902343 -3.160156,-2.007812 H 25.71875 c -0.992188,0.02734 -2.0625,0.07813 -3.132812,0.07813 -1.308594,0 -2.621094,-0.05078 -3.933594,-0.1875 -3.238282,-0.347656 -6.367188,-1.230469 -8.617188,-3.371094 10.679688,-12.898438 27.457032,-24.03125 40.542969,-25.183594 0.242187,-0.02344 0.347656,-0.07813 0.347656,-0.210937 v -0.02734 c 0,-0.507813 -1.550781,-1.765625 -2.246093,-1.765625 l -1.363282,-0.05469 c -12.605468,0 -29.144531,10.382813 -39.742187,23.46875 -0.695313,-1.820312 -1.042969,-3.746093 -1.042969,-5.699218 0,-0.617188 0.050781,-1.230469 0.105469,-1.847656 1.847656,-17.394532 28.476562,-37.625 53.84375,-37.625 1.605469,0 3.210937,0.07812 4.792969,0.238281 h 0.02344 c 7.253906,0.777343 14.960937,3.425781 17.074219,11.507812 0.375,1.417969 0.5625,2.917969 0.5625,4.46875 0,0.75 -0.05078,1.527344 -0.132813,2.328125 C 80.070312,-35.113281 32.917969,4.523438 10.757812,4.523438 Z m 0,0"
                 id="path9" />
            </g>
          </g>
        </g>
      </g>
    </g>
  </g>
  <g
     fill="#000000"
     fill-opacity="1"
     id="g18"
     transform="translate(-27.551294,-134.81118)">
    <g
       transform="translate(25.551294,190.64955)"
       id="g17">
      <g
         id="g16">
        <path
           d="M 25.71875,-0.71875 C 25.65625,-0.625 25.5,-0.601562 25.25,-0.65625 25,-0.71875 24.707031,-0.75 24.375,-0.75 c -0.335938,0 -0.804688,0.070312 -1.40625,0.203125 -0.605469,0.136719 -1.558594,0.34375 -2.859375,0.625 C 18.804688,0.367188 17.625,0.515625 16.5625,0.515625 14.132812,0.515625 11.78125,-0.0507812 9.5,-1.1875 7.226562,-2.332031 5.410156,-3.953125 4.046875,-6.046875 2.679688,-8.148438 2,-10.582031 2,-13.34375 c 0,-2.769531 0.679688,-5.273438 2.046875,-7.515625 1.988281,-3.289063 4.988281,-5.429687 9,-6.421875 1.269531,-0.320312 2.539063,-0.484375 3.8125,-0.484375 1.75,0 3.820313,0.296875 6.21875,0.890625 0.726563,0.179688 1.34375,0.359375 1.84375,0.546875 0.5,0.1875 0.804687,0.28125 0.921875,0.28125 l 0.578125,-0.140625 h 0.59375 c 0.15625,0 0.234375,0.105469 0.234375,0.3125 v 5.953125 c 0,0.125 -0.117188,0.1875 -0.34375,0.1875 -0.230469,0 -0.367188,-0.02344 -0.40625,-0.07813 -0.04297,-0.0625 -0.08594,-0.132812 -0.125,-0.21875 -0.03125,-0.08203 -0.07422,-0.164062 -0.125,-0.25 -0.04297,-0.09375 -0.08594,-0.175781 -0.125,-0.25 -0.04297,-0.08203 -0.07031,-0.140625 -0.07813,-0.171875 -1.917969,-3.84375 -4.820313,-5.765625 -8.703125,-5.765625 -3.511719,0 -6.257812,1.121094 -8.234375,3.359375 -1.96875,2.230469 -2.953125,5.183594 -2.953125,8.859375 0,3.679688 1.082031,6.835938 3.25,9.46875 2.175781,2.636719 5.132812,3.953125 8.875,3.953125 2.039062,0 3.894531,-0.601563 5.5625,-1.8125 1.675781,-1.207031 2.992188,-2.691406 3.953125,-4.453125 0.03125,-0.070312 0.109375,-0.109375 0.234375,-0.109375 h 0.25 c 0.125,0 0.1875,0.078125 0.1875,0.234375 0,0.148438 -0.03906,0.292969 -0.109375,0.4375 z m 0,0"
           id="path15" />
      </g>
    </g>
  </g>
  <g
     fill="#000000"
     fill-opacity="1"
     id="g21"
     transform="translate(-27.551294,-134.81118)">
    <g
       transform="translate(57.829242,190.64955)"
       id="g20">
      <g
         id="g19">
        <path
           d="m 27.859375,-3.453125 c 0,1.71875 1.191406,2.617187 3.578125,2.6875 0.09375,0 0.140625,0.054687 0.140625,0.15625 V -0.15625 C 31.578125,-0.0507812 31.53125,0 31.4375,0 H 19.265625 C 19.171875,0 19.125,-0.0507812 19.125,-0.15625 v -0.453125 c 0,-0.101563 0.316406,-0.15625 0.953125,-0.15625 0.632813,0 1.359375,-0.140625 2.171875,-0.421875 1.25,-0.40625 1.875,-1.09375 1.875,-2.0625 v -9.125 c 0,-0.125 -0.02344,-0.203125 -0.0625,-0.234375 -0.03125,-0.03906 -0.109375,-0.0625 -0.234375,-0.0625 H 8.75 c -0.125,0 -0.210938,0.02344 -0.25,0.0625 C 8.46875,-12.578125 8.453125,-12.5 8.453125,-12.375 v 9.3125 c 0,1.53125 1.125,2.296875 3.375,2.296875 0.101563,0 0.15625,0.054687 0.15625,0.15625 v 0.453125 c 0,0.1054688 -0.04297,0.15625 -0.125,0.15625 H 1.296875 C 1.191406,0 1.140625,-0.0507812 1.140625,-0.15625 v -0.453125 c 0,-0.101563 0.128906,-0.15625 0.390625,-0.15625 2.125,0 3.1875,-0.910156 3.1875,-2.734375 v -20.40625 c 0,-1.488281 -0.886719,-2.273438 -2.65625,-2.359375 -0.273438,-0.0078 -0.40625,-0.06641 -0.40625,-0.171875 v -0.375 c 0,-0.09375 0.046875,-0.140625 0.140625,-0.140625 h 9.59375 c 0.101563,0 0.15625,0.04687 0.15625,0.140625 v 0.375 c 0,0.07422 -0.121094,0.109375 -0.359375,0.109375 -1.824219,0 -2.734375,0.902344 -2.734375,2.703125 v 8.828125 c 0,0.125 0.015625,0.210937 0.046875,0.25 0.039062,0.03125 0.125,0.04687 0.25,0.04687 h 15.078125 c 0.125,0 0.203125,-0.01563 0.234375,-0.04687 0.03906,-0.03906 0.0625,-0.125 0.0625,-0.25 V -23.9375 c -0.02344,-0.113281 -0.03906,-0.21875 -0.04687,-0.3125 0,-0.09375 -0.02344,-0.242188 -0.0625,-0.453125 -0.09375,-0.4375 -0.546875,-0.789063 -1.359375,-1.0625 -0.8125,-0.269531 -1.734375,-0.441406 -2.765625,-0.515625 -0.105469,0 -0.15625,-0.05078 -0.15625,-0.15625 v -0.375 c 0,-0.09375 0.03906,-0.140625 0.125,-0.140625 h 11.03125 c 0.101563,0 0.15625,0.04687 0.15625,0.140625 v 0.375 c 0,0.07422 -0.121094,0.109375 -0.359375,0.109375 -1.886719,0 -2.828125,0.902344 -2.828125,2.703125 z m 0,0"
           id="path18" />
      </g>
    </g>
  </g>
  <g
     fill="#000000"
     fill-opacity="1"
     id="g24"
     transform="translate(-27.551294,-134.81118)">
    <g
       transform="translate(92.897487,190.64955)"
       id="g23">
      <g
         id="g22">
        <path
           d="M 0.140625,-0.15625 V -0.6875 c 0,-0.101562 0.046875,-0.15625 0.140625,-0.15625 H 0.703125 C 1.242188,-0.882812 1.789062,-0.90625 2.34375,-0.90625 2.90625,-0.914062 3.414062,-0.984375 3.875,-1.109375 4.925781,-1.410156 5.453125,-2.175781 5.453125,-3.40625 V -23.5625 c 0,-1.257812 -0.746094,-2.0625 -2.234375,-2.40625 C 2.789062,-26.050781 2.363281,-26.125 1.9375,-26.1875 H 1.53125 c -0.105469,0 -0.15625,-0.05078 -0.15625,-0.15625 v -0.46875 c 0,-0.09375 0.050781,-0.140625 0.15625,-0.140625 h 18.1875 c 0.226562,0 0.390625,0.04297 0.484375,0.125 0.101563,0.08594 0.171875,0.265625 0.203125,0.546875 L 20.75,-20.75 c 0,0.136719 -0.101562,0.203125 -0.296875,0.203125 -0.1875,0 -0.328125,-0.05469 -0.421875,-0.171875 -0.07422,-0.132812 -0.171875,-0.601562 -0.296875,-1.40625 -0.117187,-0.800781 -0.335937,-1.46875 -0.65625,-2 -0.3125,-0.539062 -0.871094,-0.878906 -1.671875,-1.015625 H 9.421875 c -0.167969,0 -0.25,0.08594 -0.25,0.25 v 9.875 c 0,0.136719 0.066406,0.203125 0.203125,0.203125 h 6.609375 c 1.707031,0 2.5625,-0.992188 2.5625,-2.984375 0,-0.101563 0.05078,-0.15625 0.15625,-0.15625 h 0.453125 c 0.101562,0 0.15625,0.05469 0.15625,0.15625 v 8.1875 c 0,0.09375 -0.05469,0.140625 -0.15625,0.140625 h -0.453125 c -0.105469,0 -0.15625,-0.046875 -0.15625,-0.140625 0,-1.894531 -0.546875,-2.988281 -1.640625,-3.28125 C 16.59375,-12.960938 16.265625,-13 15.921875,-13 H 9.375 c -0.136719,0 -0.203125,0.0625 -0.203125,0.1875 V -3.5 c 0,0.960938 0.441406,1.5 1.328125,1.625 0.25,0.042969 0.515625,0.0625 0.796875,0.0625 h 6.375 c 1.3125,0 2.328125,-0.582031 3.046875,-1.75 0.53125,-0.820312 0.851562,-1.769531 0.96875,-2.84375 0.03125,-0.351562 0.21875,-0.53125 0.5625,-0.53125 0.15625,0 0.234375,0.085938 0.234375,0.25 l -0.625,6.421875 C 21.773438,-0.0859375 21.679688,0 21.578125,0 H 0.28125 C 0.1875,0 0.140625,-0.0507812 0.140625,-0.15625 Z m 0,0"
           id="path21" />
      </g>
    </g>
  </g>
  <g
     fill="#000000"
     fill-opacity="1"
     id="g27"
     transform="translate(-27.551294,-134.81118)">
    <g
       transform="translate(119.40372,190.64955)"
       id="g26">
      <g
         id="g25">
        <path
           d="M 10.171875,-0.15625 C 10.171875,-0.0507812 10.117188,0 10.015625,0 H 0.25 C 0.144531,0 0.09375,-0.0507812 0.09375,-0.15625 v -0.453125 c 0,-0.101563 0.082031,-0.15625 0.25,-0.15625 1.75,-0.070313 2.925781,-1.003906 3.53125,-2.796875 l 7.8125,-22.578125 c 0.0078,-0.01953 0.01563,-0.05078 0.01563,-0.09375 l -0.21875,-0.625 c 0,-0.0625 0.02344,-0.09375 0.07813,-0.09375 h 3.828125 c 0.01953,0.01172 0.05078,0.02344 0.09375,0.03125 0.05078,0.01172 0.08594,0.04687 0.109375,0.109375 l 8.09375,22.703125 c 0.175781,0.34375 0.316406,0.65625 0.421875,0.9375 0.113281,0.28125 0.238281,0.539063 0.375,0.765625 0.3125,0.523438 0.816406,0.921875 1.515625,1.203125 0.582031,0.292969 1.117188,0.4375 1.609375,0.4375 0.101563,0 0.15625,0.058594 0.15625,0.171875 v 0.4375 C 27.765625,-0.0507812 27.710938,0 27.609375,0 H 15.90625 C 15.800781,0 15.75,-0.0507812 15.75,-0.15625 v -0.453125 c 0,-0.101563 0.234375,-0.164063 0.703125,-0.1875 0.476563,-0.03125 0.867187,-0.054687 1.171875,-0.078125 1.769531,-0.195312 2.65625,-0.796875 2.65625,-1.796875 0,-0.082031 -0.01172,-0.171875 -0.03125,-0.265625 l -2.890625,-8.15625 c -0.01172,-0.01953 -0.03906,-0.07813 -0.07813,-0.171875 -0.15625,-0.425781 -0.421875,-0.640625 -0.796875,-0.640625 H 9.6875 c -0.375,0 -0.671875,0.210938 -0.890625,0.625 -0.042969,0.09375 -0.0625,0.148438 -0.0625,0.15625 L 5.875,-2.734375 V -2.5625 c 0,0.335938 0.171875,0.636719 0.515625,0.90625 0.769531,0.59375 1.8125,0.890625 3.125,0.890625 h 0.5 c 0.101563,0 0.15625,0.054687 0.15625,0.15625 z m 5.65625,-13.875 c 0.226563,0 0.34375,-0.09766 0.34375,-0.296875 0,-0.09375 -0.02734,-0.207031 -0.07813,-0.34375 L 13.25,-22.5 c -0.125,-0.34375 -0.21875,-0.515625 -0.28125,-0.515625 -0.0625,0 -0.167969,0.179687 -0.3125,0.53125 l -2.671875,7.8125 C 9.929688,-14.535156 9.90625,-14.394531 9.90625,-14.25 c 0,0.148438 0.09375,0.21875 0.28125,0.21875 z m 0,0"
           id="path24" />
      </g>
    </g>
  </g>
  <g
     fill="#000000"
     fill-opacity="1"
     id="g30"
     transform="translate(-27.551294,-134.81118)">
    <g
       transform="translate(149.5985,190.64955)"
       id="g29">
      <g
         id="g28">
        <path
           d="M 0.921875,0 C 0.816406,0 0.765625,-0.0507812 0.765625,-0.15625 v -0.453125 c 0,-0.101563 0.050781,-0.15625 0.15625,-0.15625 H 1.375 c 1.09375,0 2.050781,-0.226563 2.875,-0.6875 0.320312,-0.1875 0.59375,-0.476563 0.8125,-0.875 C 5.28125,-2.734375 5.390625,-3.1875 5.390625,-3.6875 v -20.234375 c 0,-0.789063 -0.511719,-1.394531 -1.53125,-1.8125 C 3.148438,-26.035156 2.394531,-26.1875 1.59375,-26.1875 H 1.171875 c -0.105469,0 -0.15625,-0.05078 -0.15625,-0.15625 v -0.46875 c 0,-0.09375 0.050781,-0.140625 0.15625,-0.140625 h 12.9375 c 0.101563,0 0.15625,0.04687 0.15625,0.140625 v 0.46875 c 0,0.105469 -0.05469,0.15625 -0.15625,0.15625 H 13.28125 c -1.3125,0 -2.46875,0.183594 -3.46875,0.546875 -0.292969,0.105469 -0.480469,0.277344 -0.5625,0.515625 -0.085938,0.230469 -0.125,0.632812 -0.125,1.203125 V -2.71875 c 0.019531,0.21875 0.128906,0.429688 0.328125,0.625 0.207031,0.1875 0.441406,0.28125 0.703125,0.28125 h 7.546875 c 1.132813,0 2.25,-0.671875 3.34375,-2.015625 0.289063,-0.351563 0.65625,-0.828125 1.09375,-1.421875 0.4375,-0.59375 0.703125,-0.925781 0.796875,-1 0.414062,-0.300781 0.625,-0.296875 0.625,0.015625 0,0.074219 -0.02344,0.152344 -0.0625,0.234375 l -2.890625,5.65625 C 20.492188,-0.113281 20.359375,0 20.203125,0 Z m 0,0"
           id="path27" />
      </g>
    </g>
  </g>
  <g
     fill="#000000"
     fill-opacity="1"
     id="g33"
     transform="translate(-27.551294,-134.81118)">
    <g
       transform="translate(175.62694,190.64955)"
       id="g32">
      <g
         id="g31">
        <path
           d="M 10.0625,0 C 9.625,0 9.40625,-0.125 9.40625,-0.375 v -0.203125 c 0,-0.195313 0.1875,-0.316406 0.5625,-0.359375 0.375,-0.050781 0.617188,-0.082031 0.734375,-0.09375 C 11.671875,-1.132812 12.351562,-1.375 12.75,-1.75 c 0.394531,-0.375 0.59375,-0.9375 0.59375,-1.6875 v -6.328125 c 0,-0.09375 -0.02344,-0.191406 -0.0625,-0.296875 l -7.8125,-12.453125 c -1.230469,-1.957031 -2.445312,-3.082031 -3.640625,-3.375 -0.0625,-0.0078 -0.179687,-0.03125 -0.34375,-0.0625 -0.15625,-0.03906 -0.527344,-0.109375 -1.109375,-0.203125 -0.199219,-0.03906 -0.296875,-0.179688 -0.296875,-0.421875 0,-0.25 0.09375,-0.375 0.28125,-0.375 h 10.9375 c 0.21875,0 0.328125,0.132813 0.328125,0.390625 0,0.25 -0.109375,0.375 -0.328125,0.375 -0.855469,0.08594 -1.421875,0.171875 -1.703125,0.265625 -0.636719,0.230469 -0.953125,0.636719 -0.953125,1.21875 0,0.304687 0.078125,0.578125 0.234375,0.828125 l 6.453125,10.3125 c 0.144531,0.210938 0.234375,0.34375 0.265625,0.40625 0.03125,0.05469 0.09766,0.07813 0.203125,0.07813 0.113281,0 0.285156,-0.179687 0.515625,-0.546875 l 5.15625,-8.78125 C 21.625,-22.707026 21.800781,-23.035151 22,-23.39062 c 0.195312,-0.351563 0.296875,-0.710937 0.296875,-1.078125 0,-0.9375 -0.640625,-1.484375 -1.921875,-1.640625 -0.460938,-0.07031 -0.710938,-0.144531 -0.75,-0.21875 -0.03125,-0.07031 -0.04687,-0.164063 -0.04687,-0.28125 0,-0.226563 0.109375,-0.34375 0.328125,-0.34375 h 8.921875 c 0.175781,0 0.265625,0.08984 0.265625,0.265625 0,0.179688 -0.03125,0.296875 -0.09375,0.359375 -0.05469,0.0625 -0.125,0.109375 -0.21875,0.140625 -0.09375,0.03125 -0.199219,0.05859 -0.3125,0.07813 -0.117188,0.02344 -0.367188,0.07813 -0.75,0.171875 -0.886719,0.210938 -1.855469,0.914062 -2.90625,2.109375 -0.117188,0.148437 -0.179688,0.230469 -0.1875,0.25 l -7.546875,13 V -3.4375 c 0,0.6875 0.191406,1.230469 0.578125,1.625 0.382812,0.398438 1.039062,0.65625 1.96875,0.78125 0.925781,0.117188 1.390625,0.261719 1.390625,0.4375 V -0.375 c 0,0.25 -0.21875,0.375 -0.65625,0.375 z m 0,0"
           id="path30" />
      </g>
    </g>
  </g>
  <g
     fill="#000000"
     fill-opacity="1"
     id="g36"
     transform="translate(-27.551294,-134.81118)">
    <g
       transform="translate(207.15953,190.64955)"
       id="g35">
      <g
         id="g34" />
    </g>
  </g>
  <g
     fill="#000000"
     fill-opacity="1"
     id="g39"
     transform="translate(-27.551294,-134.81118)">
    <g
       transform="translate(220.02007,190.64955)"
       id="g38">
      <g
         id="g37">
        <path
           d="m 24.515625,-1.640625 c -1.117187,0.679687 -2.328125,1.210937 -3.640625,1.59375 -1.3125,0.375 -2.480469,0.5625 -3.5,0.5625 -2.085938,0 -4.078125,-0.339844 -5.984375,-1.015625 C 8.796875,-1.4375 6.707031,-2.832031 5.125,-4.6875 3.113281,-7.039062 2.109375,-10.03125 2.109375,-13.65625 c 0,-2.613281 0.664063,-4.992188 2,-7.140625 1.34375,-2.144531 3.195313,-3.84375 5.5625,-5.09375 2.363281,-1.25 4.90625,-1.875 7.625,-1.875 2.71875,0 5.15625,0.609375 7.3125,1.828125 2.15625,1.210938 3.878906,2.871094 5.171875,4.984375 1.300781,2.117187 1.953125,4.40625 1.953125,6.875 0,2.46875 -0.648437,4.820313 -1.9375,7.046875 -1.28125,2.21875 -3.042969,4.015625 -5.28125,5.390625 z M 6.125,-14.265625 c 0,2.117187 0.460938,4.214844 1.390625,6.296875 0.9375,2.085938 2.28125,3.78125 4.03125,5.09375 1.75,1.3125 3.769531,1.96875 6.0625,1.96875 3.257813,0 5.800781,-1.242188 7.625,-3.734375 1.644531,-2.257813 2.46875,-5.140625 2.46875,-8.640625 0,-3.507812 -1.007813,-6.53125 -3.015625,-9.0625 -0.992188,-1.238281 -2.195312,-2.226562 -3.609375,-2.96875 -1.417969,-0.75 -2.851563,-1.125 -4.296875,-1.125 -1.449219,0 -2.636719,0.164062 -3.5625,0.484375 -0.929688,0.3125 -1.765625,0.746094 -2.515625,1.296875 -0.75,0.554688 -1.414063,1.214844 -1.984375,1.984375 -0.574219,0.761719 -1.054688,1.589844 -1.4375,2.484375 -0.773438,1.835938 -1.15625,3.808594 -1.15625,5.921875 z m 0,0"
           id="path36" />
      </g>
    </g>
  </g>
  <g
     fill="#000000"
     fill-opacity="1"
     id="g42"
     transform="translate(-27.551294,-134.81118)">
    <g
       transform="translate(256.19679,190.64955)"
       id="g41">
      <g
         id="g40">
        <path
           d="M 0.140625,-0.15625 V -0.6875 c 0,-0.101562 0.046875,-0.15625 0.140625,-0.15625 H 0.703125 C 1.242188,-0.882812 1.789062,-0.90625 2.34375,-0.90625 2.90625,-0.914062 3.414062,-0.984375 3.875,-1.109375 4.925781,-1.410156 5.453125,-2.175781 5.453125,-3.40625 V -23.5625 c 0,-1.257812 -0.746094,-2.0625 -2.234375,-2.40625 C 2.789062,-26.050781 2.363281,-26.125 1.9375,-26.1875 H 1.53125 c -0.105469,0 -0.15625,-0.05078 -0.15625,-0.15625 v -0.46875 c 0,-0.09375 0.050781,-0.140625 0.15625,-0.140625 h 18.1875 c 0.226562,0 0.390625,0.04297 0.484375,0.125 0.101563,0.08594 0.171875,0.265625 0.203125,0.546875 L 20.75,-20.75 c 0,0.136719 -0.101562,0.203125 -0.296875,0.203125 -0.1875,0 -0.328125,-0.05469 -0.421875,-0.171875 -0.07422,-0.132812 -0.171875,-0.601562 -0.296875,-1.40625 -0.117187,-0.800781 -0.335937,-1.46875 -0.65625,-2 -0.3125,-0.539062 -0.871094,-0.878906 -1.671875,-1.015625 H 9.421875 c -0.167969,0 -0.25,0.08594 -0.25,0.25 v 9.875 c 0,0.136719 0.066406,0.203125 0.203125,0.203125 h 6.609375 c 1.707031,0 2.5625,-0.992188 2.5625,-2.984375 0,-0.101563 0.05078,-0.15625 0.15625,-0.15625 h 0.453125 c 0.101562,0 0.15625,0.05469 0.15625,0.15625 v 8.1875 c 0,0.09375 -0.05469,0.140625 -0.15625,0.140625 h -0.453125 c -0.105469,0 -0.15625,-0.046875 -0.15625,-0.140625 0,-1.894531 -0.546875,-2.988281 -1.640625,-3.28125 C 16.59375,-12.960938 16.265625,-13 15.921875,-13 H 9.375 c -0.136719,0 -0.203125,0.0625 -0.203125,0.1875 V -3.5 c 0,0.960938 0.441406,1.5 1.328125,1.625 0.25,0.042969 0.515625,0.0625 0.796875,0.0625 h 6.375 c 1.3125,0 2.328125,-0.582031 3.046875,-1.75 0.53125,-0.820312 0.851562,-1.769531 0.96875,-2.84375 0.03125,-0.351562 0.21875,-0.53125 0.5625,-0.53125 0.15625,0 0.234375,0.085938 0.234375,0.25 l -0.625,6.421875 C 21.773438,-0.0859375 21.679688,0 21.578125,0 H 0.28125 C 0.1875,0 0.140625,-0.0507812 0.140625,-0.15625 Z m 0,0"
           id="path39" />
      </g>
    </g>
  </g>
  <g
     fill="#000000"
     fill-opacity="1"
     id="g45"
     transform="translate(-27.551294,-134.81118)">
    <g
       transform="translate(282.70302,190.64955)"
       id="g44">
      <g
         id="g43">
        <path
           d="M 1.296875,0 C 1.191406,0 1.140625,-0.0507812 1.140625,-0.15625 v -0.453125 c 0,-0.101563 0.066406,-0.15625 0.203125,-0.15625 h 0.4375 c 0.695312,0 1.175781,-0.0625 1.4375,-0.1875 0.9375,-0.457031 1.40625,-1.71875 1.40625,-3.78125 v -19.875 c 0,-0.851563 -0.828125,-1.363281 -2.484375,-1.53125 -0.367187,-0.03125 -0.625,-0.04687 -0.78125,-0.04687 -0.148437,0 -0.21875,-0.05078 -0.21875,-0.15625 v -0.46875 c 0,-0.09375 0.050781,-0.140625 0.15625,-0.140625 h 7 L 26.4375,-6.90625 c 0.0625,0.0625 0.101562,0.117188 0.125,0.15625 0.03125,0.03125 0.07031,0.046875 0.125,0.046875 0.0625,0 0.09375,-0.0625 0.09375,-0.1875 V -20.0625 c 0,-2.53125 -0.210938,-4.179688 -0.625,-4.953125 -0.417969,-0.78125 -1.265625,-1.171875 -2.546875,-1.171875 h -0.96875 c -0.105469,0 -0.15625,-0.05078 -0.15625,-0.15625 v -0.46875 c 0,-0.09375 0.05078,-0.140625 0.15625,-0.140625 h 9.9375 c 0.101563,0 0.15625,0.04687 0.15625,0.140625 v 0.46875 c 0,0.105469 -0.1875,0.15625 -0.5625,0.15625 -0.375,0 -0.996094,0.21875 -1.859375,0.65625 -0.867188,0.429688 -1.296875,0.960938 -1.296875,1.59375 v 23.390625 c 0,0.273437 -0.03906,0.46875 -0.109375,0.59375 -0.07422,0.125 -0.257812,0.1875 -0.546875,0.1875 -0.28125,0 -0.496094,-0.058594 -0.640625,-0.171875 -0.136719,-0.1132812 -0.304688,-0.28125 -0.5,-0.5 L 7.515625,-22.296875 c -0.125,-0.125 -0.242187,-0.1875 -0.34375,-0.1875 -0.0625,0 -0.09375,0.0625 -0.09375,0.1875 V -3.21875 c 0,1.167969 0.914063,1.933594 2.75,2.296875 0.507813,0.105469 0.894531,0.15625 1.15625,0.15625 0.269531,0 0.40625,0.054687 0.40625,0.15625 V -0.15625 C 11.390625,-0.0507812 11.335938,0 11.234375,0 Z m 0,0"
           id="path42" />
      </g>
    </g>
  </g>
  <g
     fill="#000000"
     fill-opacity="1"
     id="g48"
     transform="translate(-27.551294,-134.81118)">
    <g
       transform="translate(318.44017,190.64955)"
       id="g47">
      <g
         id="g46">
        <path
           d="m 29.828125,-11.859375 c 0.132813,0 0.203125,0.101563 0.203125,0.296875 0,0.199219 -0.07031,0.339844 -0.203125,0.421875 -0.34375,0.136719 -0.699219,0.257813 -1.0625,0.359375 -0.367187,0.105469 -0.699219,0.242188 -1,0.40625 -0.710937,0.375 -1.0625,0.992188 -1.0625,1.84375 v 6.21875 c 0,0.28125 -0.671875,0.65625 -2.015625,1.125 C 23.34375,-0.71875 22.25,-0.375 21.40625,-0.15625 17.46875,0.8125 13.953125,0.710938 10.859375,-0.453125 7.304688,-1.816406 4.789062,-4.257812 3.3125,-7.78125 c -0.742188,-1.757812 -1.109375,-3.507812 -1.109375,-5.25 0,-1.738281 0.171875,-3.203125 0.515625,-4.390625 1.039062,-3.613281 3.234375,-6.394531 6.578125,-8.34375 2.175781,-1.28125 4.460937,-1.921875 6.859375,-1.921875 2.40625,0 4.960938,0.484375 7.671875,1.453125 0.488281,0.179687 0.765625,0.265625 0.828125,0.265625 h 0.234375 l 0.765625,-0.1875 h 0.484375 c 0.132813,0 0.203125,0.07422 0.203125,0.21875 v 6.359375 c 0,0.242187 -0.140625,0.359375 -0.421875,0.359375 h -0.07813 c -0.242188,-0.01953 -0.402344,-0.34375 -0.484375,-0.96875 -0.03125,-0.125 -0.05469,-0.222656 -0.0625,-0.296875 -1.273437,-3.988281 -3.964844,-5.984375 -8.078125,-5.984375 -3.28125,0 -5.902344,1.246094 -7.859375,3.734375 -1.960937,2.492187 -2.9375,5.449219 -2.9375,8.875 0,3.429687 0.984375,6.460937 2.953125,9.09375 1.96875,2.625 4.675781,3.9375 8.125,3.9375 1.769531,0 3.226562,-0.269531 4.375,-0.8125 0.445312,-0.21875 0.789062,-0.492187 1.03125,-0.828125 v -5.234375 c 0,-1.1875 -0.339844,-2.054687 -1.015625,-2.609375 -0.679687,-0.550781 -1.921875,-0.828125 -3.734375,-0.828125 -0.136719,0 -0.203125,-0.117187 -0.203125,-0.359375 0,-0.238281 0.06641,-0.359375 0.203125,-0.359375 z m 0,0"
           id="path45" />
      </g>
    </g>
  </g>
</svg>
